HIERARCHY
ROOT SpineBase
{
  OFFSET 0.000000 0.000000 0.000000
  CHANNELS 6 Xposition Yposition Zposition Zrotation Xrotation Yrotation
  JOINT SpineMid
  {
    OFFSET -0.000000 27.642872 -0.000000
    CHANNELS 3 Zrotation Xrotation Yrotation
    JOINT SpineShoulder
    {
      OFFSET -0.130246 20.611544 -0.603527
      CHANNELS 3 Zrotation Xrotation Yrotation
      JOINT Neck
      {
        OFFSET -0.082389 6.849046 -0.479544
        CHANNELS 3 Zrotation Xrotation Yrotation
        JOINT Head
        {
          OFFSET 2.553159 12.358310 0.636915
          CHANNELS 3 Zrotation Xrotation Yrotation
          End Site
          {
            OFFSET 0 0 0
          }
        }
      }
      JOINT ShoulderLeft
      {
        OFFSET -11.997792 -2.618973 -7.178485
        CHANNELS 3 Zrotation Xrotation Yrotation
        JOINT ElbowLeft
        {
          OFFSET -4.121708 -20.506678 -3.025216
          CHANNELS 3 Zrotation Xrotation Yrotation
          JOINT WristLeft
          {
            OFFSET 1.559658 -20.411535 -5.288188
            CHANNELS 3 Zrotation Xrotation Yrotation
            JOINT HandLeft
            {
              OFFSET 1.106917 -6.566941 -1.015340
              CHANNELS 3 Zrotation Xrotation Yrotation
              JOINT HandTipLeft
              {
                OFFSET 0.533300 -6.319007 -0.942829
                CHANNELS 3 Zrotation Xrotation Yrotation
                End Site
                {
                  OFFSET 0 0 0
                }
              }
              JOINT ThumbLeft
              {
                OFFSET -2.287777 -0.128602 -3.283895
                CHANNELS 3 Zrotation Xrotation Yrotation
                End Site
                {
                  OFFSET 0 0 0
                }
              }
            }
          }
        }
      }
      JOINT ShoulderRight
      {
        OFFSET 12.833787 -2.985972 4.483561
        CHANNELS 3 Zrotation Xrotation Yrotation
        JOINT ElbowRight
        {
          OFFSET 0.933535 -20.858175 0.120799
          CHANNELS 3 Zrotation Xrotation Yrotation
          JOINT WristRight
          {
            OFFSET 1.507404 -20.662474 -3.798772
            CHANNELS 3 Zrotation Xrotation Yrotation
            JOINT HandRight
            {
              OFFSET -0.294928 -10.177157 -1.502767
              CHANNELS 3 Zrotation Xrotation Yrotation
              JOINT HandTipRight
              {
                OFFSET 0.572415 -6.262660 0.324674
                CHANNELS 3 Zrotation Xrotation Yrotation
                End Site
                {
                  OFFSET 0 0 0
                }
              }
              JOINT ThumbRight
              {
                OFFSET -2.977931 -0.869774 -2.339162
                CHANNELS 3 Zrotation Xrotation Yrotation
                End Site
                {
                  OFFSET 0 0 0
                }
              }
            }
          }
        }
      }
    }
  }
  JOINT HipLeft
  {
    OFFSET -5.023940 1.046430 -5.417012
    CHANNELS 3 Zrotation Xrotation Yrotation
    JOINT KneeLeft
    {
      OFFSET -6.375311 -28.064802 -0.190602
      CHANNELS 3 Zrotation Xrotation Yrotation
      JOINT AnkleLeft
      {
        OFFSET 0.427845 -33.718245 8.806890
        CHANNELS 3 Zrotation Xrotation Yrotation
        JOINT FootLeft
        {
          OFFSET 2.862199 -2.211131 -9.527749
          CHANNELS 3 Zrotation Xrotation Yrotation
          End Site
          {
            OFFSET 0 0 0
          }
        }
      }
    }
  }
  JOINT HipRight
  {
    OFFSET 4.698911 0.532911 -0.676962
    CHANNELS 3 Zrotation Xrotation Yrotation
    JOINT KneeRight
    {
      OFFSET -3.874650 -29.331589 1.423190
      CHANNELS 3 Zrotation Xrotation Yrotation
      JOINT AnkleRight
      {
        OFFSET -5.555169 -33.022085 6.131598
        CHANNELS 3 Zrotation Xrotation Yrotation
        JOINT FootRight
        {
          OFFSET 2.392221 -2.407698 -9.315863
          CHANNELS 3 Zrotation Xrotation Yrotation
          End Site
          {
            OFFSET 0 0 0
          }
        }
      }
    }
  }
}
MOTION
Frames: 8
Frame Time: 0.033333
22.140781 68.242860 363.059110 1.879518 2.599058 -10.015000 0.567721 -0.341670 10.075902 0.223156 0.113617 0.128095 11.368849 0.240763 -1.292995 0.000000 0.000000 0.000000 1.592803 -3.674817 -0.386329 -6.391492 6.422392 1.473292 2.322403 -10.165169 -1.715540 0.539991 18.173579 1.660270 0.000000 0.000000 0.000000 0.000000 0.000000 0.000000 140.260470 48.698676 -96.383878 -15.540453 -3.225283 -23.494554 3.210622 4.075543 -10.948277 -0.010139 29.136145 39.457562 0.000000 0.000000 0.000000 0.000000 0.000000 0.000000 3.429991 -2.965678 10.362842 -7.699337 0.313656 -0.889492 1.096643 -0.845423 7.438785 0.000000 0.000000 0.000000 1.152495 -4.939788 10.542260 -3.622400 0.819560 -0.334950 -2.611107 -2.321252 14.166459 0.000000 0.000000 0.000000
22.133176 68.263817 362.995205 2.216891 2.564767 -9.822626 0.521333 -0.275040 9.884214 0.146246 0.100579 0.133899 11.467012 0.051011 -1.265624 0.000000 0.000000 0.000000 1.655985 -3.958638 -0.372265 -6.644957 6.683546 1.475436 2.478488 -11.030575 -1.856007 0.526237 19.252537 1.769438 0.000000 0.000000 0.000000 0.000000 0.000000 0.000000 140.058899 48.493930 -96.125133 -15.667877 -2.932176 -23.870622 2.902775 3.644153 -11.070401 0.059793 28.582300 39.202723 0.000000 0.000000 0.000000 0.000000 0.000000 0.000000 3.141129 -3.141429 10.199519 -7.656315 0.416302 -0.891570 0.898348 -2.793241 5.684410 0.000000 0.000000 0.000000 0.797843 -4.900598 10.324876 -3.624249 0.651094 -0.311839 -3.476210 -4.382955 17.048195 0.000000 0.000000 0.000000
22.109410 68.261287 362.975170 2.502394 2.493723 -9.757064 0.437824 -0.214373 9.817087 0.046520 0.074559 0.133985 11.576986 -0.077108 -1.237891 0.000000 0.000000 0.000000 1.646384 -4.119941 -0.348815 -6.590075 6.717074 1.402977 2.319607 -12.185958 -2.037269 -0.503524 19.882795 2.292613 0.000000 0.000000 0.000000 0.000000 0.000000 0.000000 140.973122 48.273735 -97.379554 -15.665412 -3.863481 -23.428919 3.437583 3.199017 -10.270909 0.039147 29.287188 38.632935 0.000000 0.000000 0.000000 0.000000 0.000000 0.000000 2.804317 -3.278850 10.158617 -7.348238 0.577827 -0.852719 0.529335 -4.106811 4.552031 0.000000 0.000000 0.000000 0.496430 -4.471367 10.187095 -3.656603 0.152498 -0.257762 -5.111510 -10.673569 23.393107 0.000000 0.000000 0.000000
22.075391 68.273123 362.936433 2.764561 2.473819 -9.591821 0.375853 -0.175997 9.650893 -0.000625 0.056192 0.138608 11.276688 -0.337065 -1.160817 0.000000 0.000000 0.000000 1.453428 -4.329498 -0.311756 -6.299608 6.804243 1.276360 1.758012 -11.636744 -1.901112 -1.199330 20.123389 2.596973 0.000000 0.000000 0.000000 0.000000 0.000000 0.000000 141.923202 48.334526 -99.158890 -15.282739 -5.146373 -22.364089 4.077616 2.451603 -9.171425 0.996348 30.436443 39.761209 0.000000 0.000000 0.000000 0.000000 0.000000 0.000000 2.596128 -3.005892 9.905929 -7.599451 0.304561 -0.843295 0.607593 -4.560132 4.305744 0.000000 0.000000 0.000000 0.170681 -4.348560 9.981978 -3.640482 0.000344 -0.245277 -5.676976 -14.116687 26.863152 0.000000 0.000000 0.000000
22.015526 68.288086 362.901588 2.957182 2.470839 -9.462577 0.280734 -0.149463 9.518012 -0.045297 0.032018 0.139393 11.193083 -0.599952 -1.077866 0.000000 0.000000 0.000000 1.310712 -4.542943 -0.260842 -5.938419 6.930880 1.137107 0.913439 -11.217148 -1.772460 -1.226699 20.087970 2.678618 0.000000 0.000000 0.000000 0.000000 0.000000 0.000000 142.208539 48.152314 -99.420091 -15.456379 -5.611680 -22.307645 5.031171 1.418778 -7.602536 -1.453322 27.983540 31.667727 0.000000 0.000000 0.000000 0.000000 0.000000 0.000000 2.571886 -3.409208 9.884373 -7.510575 0.925242 -0.840293 0.431673 -4.313346 4.796922 0.000000 0.000000 0.000000 -0.073573 -4.847390 9.905709 -3.692641 0.691540 -0.345813 -5.507757 -14.253531 27.113791 0.000000 0.000000 0.000000
21.941113 68.297165 362.867175 3.109629 2.457281 -9.395903 0.190988 -0.134273 9.447902 -0.092180 0.005805 0.138377 11.165437 -0.780929 -1.016577 0.000000 0.000000 0.000000 1.182095 -4.673120 -0.219410 -5.713618 7.014807 1.056039 0.401745 -10.346975 -1.592424 -1.829816 20.391089 2.935206 0.000000 0.000000 0.000000 0.000000 0.000000 0.000000 142.014547 47.995927 -98.940307 -15.284067 -6.009916 -21.942911 5.058665 1.322521 -7.453715 0.399956 29.081277 35.256747 0.000000 0.000000 0.000000 0.000000 0.000000 0.000000 2.529294 -3.797647 9.923640 -7.314463 1.494938 -0.831091 0.267564 -3.171439 6.038464 0.000000 0.000000 0.000000 -0.161221 -5.196950 9.890755 -3.946940 1.303914 -0.452860 -4.735733 -10.937501 24.150138 0.000000 0.000000 0.000000
21.874646 68.310173 362.833142 3.227026 2.454426 -9.377863 0.132576 -0.145707 9.427975 -0.111739 -0.015109 0.139289 11.079482 -0.775179 -1.017600 0.000000 0.000000 0.000000 0.919553 -4.775993 -0.173125 -5.365645 7.091841 0.954400 -0.422646 -9.767442 -1.449956 -0.369959 20.322314 2.475206 0.000000 0.000000 0.000000 0.000000 0.000000 0.000000 141.665028 48.140982 -98.698578 -13.890084 -6.975350 -20.067491 3.571069 1.920019 -9.158750 1.901657 28.011281 38.289609 0.000000 0.000000 0.000000 0.000000 0.000000 0.000000 2.571410 -4.258171 10.037514 -7.125703 2.110925 -0.831757 0.149656 1.216441 10.038708 0.000000 0.000000 0.000000 -0.168027 -5.610938 9.941001 -4.312610 2.006185 -0.576509 -2.926117 -4.819393 18.338896 0.000000 0.000000 0.000000
21.810057 68.321658 362.804110 3.282626 2.459554 -9.470195 0.068622 -0.179227 9.517665 -0.116206 -0.043058 0.138702 11.085512 -0.623208 -1.061609 0.000000 0.000000 0.000000 0.618890 -4.927619 -0.098155 -4.816509 7.279195 0.792910 -1.392411 -9.316018 -1.296634 0.389738 19.995943 2.269780 0.000000 0.000000 0.000000 0.000000 0.000000 0.000000 141.573102 47.874433 -98.194287 -13.485911 -7.887249 -19.201290 4.642545 1.672400 -7.812054 3.016184 29.471875 39.286887 0.000000 0.000000 0.000000 0.000000 0.000000 0.000000 2.528327 -4.438631 10.175416 -6.803752 2.279428 -0.792492 -0.168012 0.614105 9.519491 0.000000 0.000000 0.000000 0.059790 -6.120797 10.143978 -4.873008 2.772022 -0.702383 -1.082101 -0.533921 14.091774 0.000000 0.000000 0.000000
